<svg width="87" height="71" viewBox="0 0 87 71" fill="none" xmlns="http://www.w3.org/2000/svg">
<path d="M86.9003 43.3845C84.008 20.246 62.7977 4.82039 52.5541 -0.00012207L48.9389 7.23065L67.0157 36.1537C48.2155 34.7076 44.7209 47.6024 45.3236 54.2306C48.9389 68.6922 60.9901 70.4999 67.0157 70.4999C84.3695 70.4999 87.5029 52.423 86.9003 43.3845Z" fill="#F9F9F9"/>
<path d="M41.6396 43.3845C38.7473 20.246 17.537 4.82039 7.29342 -0.00012207L3.67823 7.23065L21.755 36.1537C2.95481 34.7076 -0.539848 47.6024 0.0628471 54.2306C3.67823 68.6922 15.7294 70.4999 21.755 70.4999C39.1088 70.4999 42.2421 52.423 41.6396 43.3845Z" fill="#F9F9F9"/>
</svg>
